<svg width="170" height="170" viewBox="0 0 170 170" fill="none" xmlns="http://www.w3.org/2000/svg">
<path fill-rule="evenodd" clip-rule="evenodd" d="M80.2478 0.127899C74.0599 0.902084 63.6878 3.60048 58.0086 5.91353C51.6869 8.4884 46.4693 12.1648 44.4769 15.4485C42.87 18.0967 41.7467 22.1687 41.3366 26.833C41.0743 29.8161 41.0118 40.3911 41.2353 43.9578L41.3883 46.3969L40.5819 47.3516C39.5911 48.5245 38.5418 50.5738 38.0078 52.379C37.6616 53.549 37.6066 54.4461 37.6085 58.8758C37.6107 63.6483 37.6467 64.1395 38.1133 65.7604C39.1878 69.4933 40.6848 72.1418 43.0253 74.45C44.4373 75.8425 44.4407 75.8487 44.9342 77.8813C46.4808 84.2522 50.0135 90.5506 55.4718 96.6696C56.8576 98.2233 57.0585 98.5446 56.9799 99.0806C56.3658 103.257 55.9757 105.639 55.8125 106.209L55.6145 106.902L51.937 107.924C44.5858 109.966 41.3687 111.923 39.615 115.416C38.9905 116.661 38.3519 119.104 38.3519 120.25V120.938L39.4784 120.818C40.0978 120.751 41.5121 120.802 42.6211 120.93C47.6761 121.515 52.0642 123.728 56.6283 127.994C60.4122 131.531 63.3062 135.403 66.3548 141.007C68.2739 144.535 70.4759 149.443 71.6077 152.716C72.2748 154.645 72.2925 154.778 72.0377 155.916C71.8319 156.836 71.5954 157.27 70.9885 157.845C68.4818 160.217 60.2587 163.852 58.189 163.503C56.9392 163.292 56.1033 162.697 55.5189 161.602C54.7107 160.088 54.2334 158.217 54.4205 157.297C54.6724 156.059 56.4498 154.642 59.6053 153.164C61.0409 152.491 62.2153 151.865 62.2153 151.773C62.2153 151.438 59.8079 146.412 58.5751 144.174C55.8675 139.257 53.1732 135.595 50.3925 133.05C46.4947 129.483 42.5945 128.047 38.7781 128.773C33.4197 129.792 30.1646 133.488 29.1984 139.649C28.6866 142.913 29.0703 148.373 30.1589 153.309C31.0589 157.391 32.6569 162.631 33.0018 162.631C33.0871 162.631 33.934 162.372 34.8838 162.057C37.0633 161.333 39.1697 160.885 40.3961 160.885C42.4004 160.885 43.6068 161.823 44.7119 164.239C45.9433 166.931 45.4594 168.205 42.7198 169.485L41.6544 169.982L105.827 169.991L170 170L169.902 169.37C166.576 147.903 161.781 132.161 156.47 125.273C154.15 122.265 149.015 119.016 141.162 115.589C139.345 114.796 137.78 114.147 137.684 114.147C137.589 114.147 137.692 114.911 137.914 115.844C138.215 117.114 138.318 118.346 138.323 120.741C138.33 124.146 137.957 126.661 136.941 130.073L136.444 131.745L138.036 133.074C142.741 136.999 144.338 142.816 142.227 148.34C141.45 150.373 140.485 151.701 138.385 153.627C136.798 155.081 136.125 155.541 134.509 156.277C131.803 157.511 129.968 157.853 126.704 157.732C124.632 157.656 123.792 157.534 122.521 157.125C117.387 155.474 113.569 151.708 112.167 146.911C111.624 145.055 111.668 141.999 112.267 140.037C113.559 135.799 117.161 132.053 121.555 130.379C123.093 129.792 125.726 129.274 127.165 129.274C127.773 129.274 128.312 129.166 128.447 129.018C128.829 128.6 129.736 124.879 129.973 122.759C130.693 116.309 128.088 111.885 121.986 109.196C120.694 108.626 119.013 108.011 118.252 107.829C117.49 107.647 116.758 107.401 116.624 107.283C116.383 107.071 115.509 102.281 115.026 98.5297L114.775 96.5845L116.168 94.9419C120.866 89.3987 124.045 83.4577 125.278 77.9164C125.705 75.9976 125.772 75.8628 126.906 74.6459C130.932 70.327 132.736 65.2607 132.739 58.2709C132.741 52.9569 131.729 49.6346 129.143 46.464C128.796 46.0385 128.77 45.8011 128.932 44.5246C129.263 41.9083 129.409 26.9191 129.131 24.2046C128.656 19.583 127.772 16.3641 126.257 13.7428C124.544 10.7782 120.815 7.00558 118.181 5.57202C116.596 4.70959 114.71 4.02927 112.965 3.69047C111.03 3.31501 105.837 3.31482 103.276 3.69008L101.252 3.98641L99.0451 3.04952C93.2278 0.579378 91.1357 0.100942 85.7592 0.0119262C83.5326 -0.0251152 81.0525 0.0270537 80.2478 0.127899ZM102.895 33.0189C107.65 35.8637 111.708 38.3209 111.913 38.4791C112.259 38.746 112.286 39.467 112.286 48.4576V58.1485L112.967 58.0244C114.542 57.7378 115.134 57.0299 115.582 54.8968C115.76 54.0499 116.058 52.942 116.243 52.4348C116.558 51.5701 116.647 51.4944 117.662 51.22C119.682 50.6739 121.258 51.5674 122.12 53.7472C122.815 55.5069 122.914 59.4867 122.328 62.0757C121.524 65.6223 119.691 68.2339 117.126 69.4847L116.015 70.027L115.872 71.7348C115.402 77.3488 112.888 82.7017 108.174 88.127C104.96 91.8256 97.8153 97.9003 95.4151 98.9743C92.3465 100.348 87.7079 101.117 83.9264 100.88C81.9159 100.754 78.6165 100.129 76.7303 99.5166C76.2176 99.3502 75.7561 99.2141 75.705 99.2141C75.4216 99.2141 77.2465 101.195 78.6732 102.435C82.1274 105.439 85.8476 106.976 91.0858 107.563C93.3475 107.816 95.8478 107.673 98.6443 107.13C100.948 106.682 102.079 106.31 104.563 105.184C105.53 104.745 106.363 104.424 106.414 104.471C106.465 104.517 106.714 105.906 106.969 107.557C107.608 111.712 107.497 114.338 106.576 116.803C104.753 121.683 101.351 126.226 95.5606 131.513C91.5373 135.187 85.3857 139.727 84.7433 139.497C84.1136 139.272 79.3467 135.409 76.7938 133.056C69.8527 126.657 66.0363 120.831 65.1412 115.268C64.8011 113.154 65.1742 109.668 66.5958 101.674L67.7621 95.1155L65.6421 93.0437C58.2182 85.7886 54.4959 79.0261 53.9345 71.7739L53.7992 70.027L52.6877 69.4847C50.1232 68.2339 48.2898 65.6223 47.4861 62.0757C46.8993 59.4867 46.9988 55.5069 47.6942 53.7472C48.5563 51.5662 50.1315 50.6739 52.1548 51.2208C53.3096 51.5328 53.3556 51.5937 53.5817 53.108C53.7658 54.3422 54.6662 56.715 55.1305 57.1899C55.3358 57.3999 55.8123 57.6906 56.1894 57.8359C57.625 58.389 57.5185 59.1605 57.5792 47.7802L57.6344 37.4606L58.3801 37.3225C58.7903 37.2467 60.3723 37.0388 61.8957 36.8606C71.6525 35.7193 82.5451 32.7959 91.4054 28.9405C92.7531 28.354 93.9445 27.8678 94.0532 27.8603C94.1618 27.8525 98.1409 30.1739 102.895 33.0189ZM26.7398 116.447C16.4302 121.315 13.5229 123.751 10.3405 130.189C7.15562 136.631 4.26985 146.153 1.83066 158.267C0.920446 162.788 0 168.1 0 168.833V169.377L3.35579 169.521C6.79852 169.669 26.1375 169.546 26.3252 169.375C26.3827 169.323 26.0857 168.46 25.6649 167.458C23.9446 163.36 21.9686 156.397 21.2129 151.77C19.0794 138.709 21.5949 129.237 28.556 124.117L30.0423 123.024L30.044 120.476C30.0453 118.215 30.2652 116.068 30.5974 115.068C30.6596 114.882 30.6319 114.731 30.536 114.733C30.4403 114.735 28.732 115.506 26.7398 116.447ZM125.748 137.421C124.556 137.649 123.63 138.181 122.523 139.274C121.25 140.532 120.944 141.293 120.929 143.237C120.919 144.528 121.015 145.08 121.371 145.782C122.02 147.062 123.219 148.186 124.583 148.793C126.165 149.497 128.48 149.537 130.097 148.888C131.454 148.343 132.999 146.93 133.626 145.661C134.264 144.37 134.281 142.173 133.663 140.908C133.132 139.821 131.427 138.245 130.285 137.785C129.237 137.363 126.995 137.183 125.748 137.421Z" fill="#AECDFD"/>
</svg>
