<svg width="120" height="120" viewBox="0 0 120 120" fill="none" xmlns="http://www.w3.org/2000/svg">
<rect width="120" height="120" rx="60" fill="#A8A8A8"/>
<path d="M47.2463 19.9122C49.7359 19.785 52.4033 19.6733 55.1326 19.8765C74.2427 21.2995 81.2095 28.2871 81.9116 29.0509L81.9663 29.1124C83.7623 31.2004 85.0183 33.6914 85.7857 36.5133L86.2752 38.8546C86.9623 42.7769 86.8395 46.7335 86.6999 49.2661C86.6281 50.5696 86.4894 51.9134 86.2726 53.4345C86.7292 53.9552 87.3104 54.7466 87.6619 55.8406C87.9074 56.603 88.0007 57.3694 88.0007 58.1746C88.0007 58.21 88 58.2454 87.9984 58.2808C87.979 58.7377 87.6667 64.1657 84.2118 69.0133C83.6478 69.8044 82.978 70.5908 82.3043 71.3468C82.0348 71.6493 81.7646 71.9469 81.5004 72.238L81.4461 72.2978C78.878 75.1271 76.1599 78.1639 75.0256 82.7511C74.8115 83.6174 74.6538 84.5389 74.5642 85.5247C74.4136 87.1817 74.4133 88.1141 74.433 88.5739C74.4753 88.6016 74.5238 88.6323 74.5791 88.6657C75.2586 89.076 76.7904 89.7925 79.9514 90.5999C81.757 91.061 83.5558 91.4118 84.9166 91.6486C86.2291 91.877 87.1104 91.9952 87.157 92.0014C87.1886 92.0055 87.2203 92.0102 87.2517 92.0155L87.2788 92.0202C92.4791 92.9546 96.9192 94.5301 100.495 96.7961C103.456 98.6722 105.834 101.022 107.494 103.807C110.05 108.093 110.046 112.011 109.984 113.122V115.343C109.984 117.853 107.91 119.765 105.506 119.765L14.488 119.764C12.0834 119.764 10.0093 117.853 10.0093 115.342V113.092C9.96414 112.052 9.98147 108.054 12.587 103.7C14.262 100.901 16.6425 98.5468 19.5989 96.6795C23.1732 94.4223 27.5947 92.8828 32.6666 92.0267L32.726 92.0174L32.7571 92.0131C33.1354 91.9609 36.5871 91.4843 40.0728 90.5917C43.2188 89.7862 44.7426 89.072 45.4179 88.6636C45.4718 88.631 45.5192 88.601 45.5607 88.5737C45.5804 88.1141 45.5802 87.1817 45.4297 85.5244C44.8657 79.3181 41.5985 75.659 38.5455 72.2955L38.4911 72.2356C37.5673 71.2179 36.571 70.1203 35.7822 69.0134C32.3277 64.1668 32.016 58.7388 31.9985 58.3992C31.9964 58.3574 31.9953 58.3155 31.9952 58.2737C31.9934 56.8117 32.3614 55.6212 32.9752 54.6348C33.2276 54.2293 33.5112 53.8786 33.7846 53.5817C33.0363 49.1211 33.0073 43.1127 33.6885 39.0318C33.8894 35.8051 35.3857 33.0892 36.7207 31.2519C38.0956 29.3596 39.4646 28.1729 39.6487 28.0164L39.6771 27.9927C39.8626 27.8397 40.0265 27.7003 40.1707 27.5725L40.1794 24.5757C40.3071 23.9294 40.6136 23.031 41.3398 22.1791C42.0842 21.3059 43.1502 20.6229 44.5575 20.2583L47.1946 19.9148L47.374 22.409L47.2463 19.9122Z" fill="#F1F0F3"/>
</svg>
