<svg width="24" height="24" viewBox="0 0 24 24" fill="none"
	xmlns="http://www.w3.org/2000/svg">
	<path fill-rule="evenodd" clip-rule="evenodd" d="M9.25 5C9.25 4.58579 9.58579 4.25 10 4.25H22C22.4142 4.25 22.75 4.58579 22.75 5C22.75 5.41421 22.4142 5.75 22 5.75H10C9.58579 5.75 9.25 5.41421 9.25 5Z" fill="#4C464B"/>
	<path fill-rule="evenodd" clip-rule="evenodd" d="M9.25 12C9.25 11.5858 9.58579 11.25 10 11.25H22C22.4142 11.25 22.75 11.5858 22.75 12C22.75 12.4142 22.4142 12.75 22 12.75H10C9.58579 12.75 9.25 12.4142 9.25 12Z" fill="#4C464B"/>
	<path fill-rule="evenodd" clip-rule="evenodd" d="M9.25 19C9.25 18.5858 9.58579 18.25 10 18.25H22C22.4142 18.25 22.75 18.5858 22.75 19C22.75 19.4142 22.4142 19.75 22 19.75H10C9.58579 19.75 9.25 19.4142 9.25 19Z" fill="#4C464B"/>
	<path fill-rule="evenodd" clip-rule="evenodd" d="M4 10.75C3.30964 10.75 2.75 11.3096 2.75 12C2.75 12.6904 3.30964 13.25 4 13.25C4.69036 13.25 5.25 12.6904 5.25 12C5.25 11.3096 4.69036 10.75 4 10.75ZM1.25 12C1.25 10.4812 2.48122 9.25 4 9.25C5.51878 9.25 6.75 10.4812 6.75 12C6.75 13.5188 5.51878 14.75 4 14.75C2.48122 14.75 1.25 13.5188 1.25 12Z" fill="#4C464B"/>
	<path fill-rule="evenodd" clip-rule="evenodd" d="M4 17.75C3.30964 17.75 2.75 18.3096 2.75 19C2.75 19.6904 3.30964 20.25 4 20.25C4.69036 20.25 5.25 19.6904 5.25 19C5.25 18.3096 4.69036 17.75 4 17.75ZM1.25 19C1.25 17.4812 2.48122 16.25 4 16.25C5.51878 16.25 6.75 17.4812 6.75 19C6.75 20.5188 5.51878 21.75 4 21.75C2.48122 21.75 1.25 20.5188 1.25 19Z" fill="#4C464B"/>
	<path fill-rule="evenodd" clip-rule="evenodd" d="M7.03033 2.96967C7.32322 3.26256 7.32322 3.73744 7.03033 4.03033L4.03033 7.03033C3.73744 7.32322 3.26256 7.32322 2.96967 7.03033L1.46967 5.53033C1.17678 5.23744 1.17678 4.76256 1.46967 4.46967C1.76256 4.17678 2.23744 4.17678 2.53033 4.46967L3.5 5.43934L5.96967 2.96967C6.26256 2.67678 6.73744 2.67678 7.03033 2.96967Z" fill="#4C464B"/>
</svg>
