<svg width="26" height="26" viewBox="0 0 26 26" fill="none"
	xmlns="http://www.w3.org/2000/svg">
	<path d="M13 14.2188C13.6731 14.2188 14.2188 13.6731 14.2188 13C14.2188 12.3269 13.6731 11.7812 13 11.7812C12.3269 11.7812 11.7812 12.3269 11.7812 13C11.7812 13.6731 12.3269 14.2188 13 14.2188Z" fill="black"/>
	<path d="M13 7.71875C13.6731 7.71875 14.2188 7.1731 14.2188 6.5C14.2188 5.8269 13.6731 5.28125 13 5.28125C12.3269 5.28125 11.7812 5.8269 11.7812 6.5C11.7812 7.1731 12.3269 7.71875 13 7.71875Z" fill="black"/>
	<path d="M13 20.7188C13.6731 20.7188 14.2188 20.1731 14.2188 19.5C14.2188 18.8269 13.6731 18.2812 13 18.2812C12.3269 18.2812 11.7812 18.8269 11.7812 19.5C11.7812 20.1731 12.3269 20.7188 13 20.7188Z" fill="black"/>
</svg>
