<svg width="80" height="70" viewBox="0 0 80 70" fill="none"
	xmlns="http://www.w3.org/2000/svg">
	<path fill-rule="evenodd" clip-rule="evenodd" d="M28.7592 0.495166C21.9661 1.60086 17.6791 3.64282 13.521 7.7525C9.38832 11.8372 7.54032 15.9976 6.94146 22.5638L6.68653 25.3603L9.08759 23.996C12.4881 22.0634 19.9326 18.5571 23.6906 17.1178C25.4458 16.4454 27.3888 15.683 28.0083 15.4237C29.2935 14.8859 31.1997 14.4019 31.1997 14.6135C31.1997 14.6915 29.087 15.7901 26.5046 17.0551C21.3594 19.5751 16.4814 22.2899 10.7978 25.7969L7.10366 28.0766L7.35106 30.1439C7.48739 31.2809 7.77799 32.8255 7.99686 33.5763L8.39519 34.9413L11.2521 32.6848C14.5133 30.1092 20.385 26.1499 24.2752 23.9035C27.2683 22.1753 34.8634 18.3627 36.3885 17.8231L37.3948 17.4671L36.5728 18.1224C36.1208 18.4825 34.4586 19.533 32.8795 20.4565C24.2458 25.5054 9.79865 37.0251 9.79865 38.8603C9.79865 39.6891 11.7259 43.4901 13.4695 46.1001L14.8182 48.1189L15.7981 45.3892C16.3369 43.8883 17.2582 41.9042 17.8451 40.9806C19.5902 38.2341 24.3153 33.9606 30.2854 29.73C39.9557 22.8769 43.6412 19.212 46.2803 13.8243C50.1673 5.8889 47.7787 2.05239 37.9579 0.454493C34.1726 -0.161229 32.7541 -0.154888 28.7592 0.495166ZM49.852 11.4073C49.5355 16.8563 48.4234 19.8363 45.461 23.1762L43.8766 24.9629L44.6102 28.1038C45.0161 29.8401 45.2099 31.4612 45.0431 31.728C44.8727 32.0019 44.0448 32.2113 43.1336 32.2113C41.5446 32.2113 41.5262 32.2262 41.6426 33.424C41.7452 34.4782 41.6464 34.6368 40.8868 34.6368C40.341 34.6368 39.8742 34.9517 39.6426 35.4764C39.4387 35.9384 38.9041 36.3683 38.4546 36.4317C37.3741 36.5847 37.0591 37.0351 36.2822 39.5383C35.371 42.4736 34.8589 42.6852 29.6975 42.2565C27.4256 42.068 25.5671 42.0113 25.5674 42.1311C25.5678 42.4378 28.0759 44.3981 30.0403 45.6273C33.8095 47.9856 40.5801 49.4164 45.782 48.9533C48.5116 48.7104 48.5353 48.6992 48.3186 47.7364C47.6567 44.7955 47.6199 43.2342 48.2079 43.0099C48.533 42.886 48.7068 42.5468 48.5946 42.2557C48.4823 41.965 48.5773 41.7269 48.8059 41.7269C49.0346 41.7269 49.2216 41.4751 49.2216 41.1672C49.2216 40.8593 49.5433 40.6075 49.9369 40.6075C50.5537 40.6075 50.6243 40.4037 50.4516 39.1215C50.2038 37.2852 50.8466 36.9184 52.8891 37.7304L54.3023 38.2923L55.3217 36.1358C56.6763 33.2703 58.6609 32.2004 62.5503 32.24C68.6753 32.3015 74.3179 36.7023 75.3326 42.2083C76.1279 46.5266 72.7739 50.6027 65.2904 54.4131C61.3549 56.4166 62.6254 56.1964 67.0093 54.1153C73.6779 50.949 76.5452 48.5413 78.6132 44.3712C79.6919 42.1949 79.8346 41.5243 79.9492 38.1027C80.0772 34.2808 80.0739 34.264 78.5619 31.1604C77.3779 28.7288 76.4852 27.5224 74.4752 25.6379C71.9146 23.237 70.6279 22.4537 67.0559 21.12C64.5545 20.1863 59.7111 19.3381 56.8764 19.3374L54.5813 19.337L54.3289 17.2033C53.9948 14.3765 53.2101 12.1674 51.6106 9.55039C50.8864 8.36522 50.2466 7.39574 50.1891 7.39574C50.1321 7.39574 49.98 9.20111 49.852 11.4073ZM5.47042 52.8559C3.40354 53.6205 0.854559 55.1146 0.123547 55.9901C-0.283072 56.477 0.16935 56.5741 3.69564 56.7554C9.52946 57.0551 11.8051 58.0776 20.5288 64.318C25.1293 67.609 27.2165 68.6891 30.6098 69.5349C33.7104 70.3077 37.1612 70.1064 39.554 69.0137L41.1493 68.2845L37.92 68.2527C34.0964 68.2156 32.7466 67.8574 28.196 65.6696C26.6818 64.9416 24.7291 63.2735 20.8746 59.4164C17.9836 56.5233 15.0442 53.7653 14.342 53.2876C12.5655 52.0782 8.15306 51.8636 5.47042 52.8559ZM22.8792 57.6884C24.0368 59.3045 26.8192 61.7357 28.4671 62.5712C33.3496 65.0468 37.7292 65.4338 47.7971 64.2785C55.613 63.3814 61.3733 64.0016 64.5613 66.0827C65.3137 66.5739 66.4194 67.2924 67.0179 67.6786L68.1066 68.3805L67.6793 67.5878C66.9946 66.3156 63.4702 63.4273 61.3211 62.3764C57.2763 60.399 52.1464 59.9848 41.563 60.7808C33.365 61.3973 28.3181 60.5333 23.9181 57.76L22.117 56.6248L22.8792 57.6884Z" fill="#C565FC"/>
</svg>
