<svg width="45" height="40" viewBox="0 0 45 40" fill="none" xmlns="http://www.w3.org/2000/svg">
<path fill-rule="evenodd" clip-rule="evenodd" d="M16.1771 0.282952C12.3559 0.914775 9.9445 2.08161 7.60555 4.43C5.28093 6.76409 4.24143 9.14147 3.90457 12.8936L3.76117 14.4916L5.11177 13.712C7.02453 12.6076 11.2121 10.6041 13.3259 9.78159C14.3133 9.39737 15.4062 8.96172 15.7547 8.81352C16.4776 8.50624 17.5498 8.22968 17.5498 8.35059C17.5498 8.39513 16.3615 9.02291 14.9089 9.74579C12.0146 11.1858 9.27081 12.7371 6.07375 14.7411L3.99581 16.0438L4.13497 17.2251C4.21166 17.8748 4.37512 18.7574 4.49823 19.1865L4.72229 19.9665L6.32928 18.677C8.16374 17.2052 11.4666 14.9428 13.6548 13.6591C15.3384 12.6716 19.6107 10.493 20.4685 10.1846L21.0345 9.98121L20.5722 10.3556C20.318 10.5614 19.383 11.1617 18.4947 11.6895C13.6383 14.5745 5.51174 21.1572 5.51174 22.2059C5.51174 22.6795 6.59583 24.8515 7.5766 26.3429L8.33523 27.4965L8.88644 25.9367C9.18951 25.0791 9.70776 23.9453 10.0379 23.4175C11.0195 21.8481 13.6774 19.4061 17.0356 16.9886C22.4751 13.0725 24.5482 10.9783 26.0327 7.89957C28.2191 3.36509 26.8755 1.17279 21.3513 0.25971C19.2221 -0.0921308 18.4242 -0.0885073 16.1771 0.282952ZM28.0418 6.51845C27.8637 9.63215 27.2382 11.3351 25.5718 13.2435L24.6806 14.2645L25.0932 16.0593C25.3216 17.0515 25.4306 17.9778 25.3368 18.1303C25.2409 18.2868 24.7752 18.4064 24.2626 18.4064C23.3688 18.4064 23.3585 18.4149 23.424 19.0995C23.4816 19.7018 23.4261 19.7925 22.9988 19.7925C22.6918 19.7925 22.4292 19.9724 22.2989 20.2722C22.1843 20.5362 21.8835 20.7819 21.6307 20.8181C21.0229 20.9056 20.8457 21.1629 20.4088 22.5933C19.8962 24.2706 19.6081 24.3916 16.7048 24.1466C15.4269 24.0389 14.3815 24.0065 14.3817 24.0749C14.3819 24.2502 15.7927 25.3703 16.8977 26.0727C19.0178 27.4204 22.8263 28.2379 25.7524 27.9733C27.2878 27.8345 27.3011 27.8281 27.1792 27.2779C26.8069 25.5974 26.7862 24.7052 27.1169 24.5771C27.2998 24.5063 27.3976 24.3125 27.3345 24.1461C27.2713 23.98 27.3248 23.844 27.4533 23.844C27.582 23.844 27.6872 23.7 27.6872 23.5241C27.6872 23.3482 27.8681 23.2043 28.0895 23.2043C28.4365 23.2043 28.4762 23.0878 28.379 22.3551C28.2396 21.3058 28.6012 21.0962 29.7501 21.5602L30.545 21.8813L31.1184 20.6491C31.8804 19.0116 32.9968 18.4002 35.1846 18.4229C38.6298 18.458 41.8038 20.9727 42.3746 24.119C42.8219 26.5866 40.9353 28.9158 36.7258 31.0932C34.5121 32.2381 35.2268 32.1122 37.6927 30.923C41.4438 29.1137 43.0567 27.7379 44.2199 25.355C44.8267 24.1114 44.9069 23.7282 44.9714 21.773C45.0434 19.589 45.0416 19.5795 44.1911 17.8059C43.5251 16.4165 43.0229 15.7271 41.8923 14.6502C40.452 13.2783 39.7282 12.8307 37.719 12.0686C36.3119 11.5351 33.5875 11.0504 31.993 11.0499L30.702 11.0497L30.56 9.83045C30.3721 8.21515 29.9307 6.95281 29.031 5.45736C28.6236 4.78012 28.2637 4.22614 28.2314 4.22614C28.1993 4.22614 28.1138 5.25778 28.0418 6.51845ZM3.07711 30.2034C1.91449 30.6403 0.480689 31.4941 0.0694953 31.9943C-0.159228 32.2726 0.0952594 32.3281 2.07879 32.4317C5.36032 32.6029 6.64038 33.1872 11.5475 36.7531C14.1352 38.6337 15.3093 39.2509 17.218 39.7342C18.9621 40.1758 20.9032 40.0608 22.2491 39.4364L23.1465 39.0197L21.33 39.0016C19.1792 38.9804 18.4199 38.7756 15.8603 37.5255C15.0085 37.1095 13.9101 36.1563 11.742 33.9523C10.1158 32.299 8.46235 30.723 8.0674 30.4501C7.06807 29.759 4.58609 29.6364 3.07711 30.2034ZM12.8696 32.9648C13.5207 33.8883 15.0858 35.2776 16.0127 35.755C18.7591 37.1696 21.2227 37.3907 26.8859 36.7305C31.2823 36.2179 34.5225 36.5723 36.3157 37.7615C36.7389 38.0422 37.3609 38.4528 37.6976 38.6735L38.31 39.0746L38.0696 38.6216C37.6845 37.8946 35.702 36.2441 34.4931 35.6437C32.2179 34.5137 29.3323 34.277 23.3792 34.7319C18.7678 35.0841 15.9289 34.5905 13.4539 33.0057L12.4408 32.3571L12.8696 32.9648Z" fill="white"/>
</svg>
