<svg width="250" height="316" viewBox="0 0 250 316" fill="none"
	xmlns="http://www.w3.org/2000/svg">
	<g clip-path="url(#clip0_81_152)">
		<path fill-rule="evenodd" clip-rule="evenodd" d="M89.8727 1.55623C68.6442 5.03124 55.2473 11.4488 42.2531 24.3648C29.3385 37.2023 23.5635 50.2778 21.6921 70.9143L20.8954 79.7033L28.3987 75.4155C39.0252 69.3416 62.2896 58.3221 74.0331 53.7984C79.5183 51.6852 85.5902 49.2892 87.526 48.4741C91.5423 46.784 97.4992 45.263 97.4992 45.928C97.4992 46.1729 90.8971 49.6257 82.8271 53.6015C66.7481 61.5213 51.5046 70.0535 33.7431 81.0755L22.199 88.2402L22.9721 94.7374C23.3981 98.3109 24.3062 103.165 24.9902 105.525L26.235 109.815L35.1627 102.723C45.3542 94.6283 63.7033 82.1849 75.86 75.1247C85.2135 69.6934 108.948 57.711 113.714 56.0151L116.859 54.8964L114.29 56.9556C112.878 58.0875 107.683 61.3889 102.749 64.2916C75.7683 80.1595 30.6208 116.364 30.6208 122.132C30.6208 124.736 36.6435 136.682 42.0923 144.885L46.3069 151.23L49.3692 142.651C51.0529 137.934 53.9321 131.698 55.766 128.796C61.2194 120.164 75.9854 106.733 94.6421 93.4367C124.862 71.8984 136.379 60.3803 144.626 43.4474C156.773 18.5079 149.309 6.45033 118.619 1.4284C106.789 -0.506716 102.357 -0.486787 89.8727 1.55623ZM155.788 35.8513C154.799 52.9765 151.323 62.3424 142.066 72.8389L137.115 78.4542L139.407 88.3257C140.676 93.7826 141.281 98.8774 140.76 99.716C140.227 100.577 137.64 101.235 134.792 101.235C129.827 101.235 129.77 101.282 130.133 105.046C130.454 108.359 130.145 108.858 127.771 108.858C126.066 108.858 124.607 109.848 123.883 111.497C123.246 112.949 121.575 114.3 120.171 114.499C116.794 114.98 115.81 116.395 113.382 124.263C110.535 133.488 108.934 134.153 92.8048 132.805C85.7052 132.213 79.8973 132.035 79.8983 132.411C79.8996 133.375 87.7373 139.536 93.876 143.399C105.655 150.811 126.813 155.308 143.069 153.852C151.599 153.089 151.673 153.054 150.996 150.028C148.927 140.785 148.812 135.878 150.65 135.173C151.666 134.784 152.209 133.718 151.858 132.803C151.507 131.889 151.804 131.141 152.519 131.141C153.233 131.141 153.818 130.349 153.818 129.382C153.818 128.414 154.823 127.623 156.053 127.623C157.981 127.623 158.201 126.982 157.661 122.953C156.887 117.181 158.896 116.028 165.279 118.58L169.695 120.347L172.88 113.569C177.114 104.563 183.316 101.201 195.47 101.325C214.61 101.518 232.244 115.349 235.415 132.654C237.9 146.226 227.419 159.036 204.033 171.012C191.734 177.308 195.705 176.616 209.404 170.076C230.244 160.124 239.204 152.558 245.667 139.451C249.037 132.612 249.483 130.504 249.842 119.751C250.242 107.739 250.231 107.686 245.506 97.9321C241.806 90.2901 239.017 86.4985 232.735 80.5758C224.733 73.03 220.712 70.5684 209.55 66.3767C201.733 63.4424 186.597 60.7766 177.739 60.7743L170.567 60.7731L169.778 54.0671C168.734 45.183 166.282 38.2402 161.283 30.0153C159.02 26.2905 157.021 23.2436 156.841 23.2436C156.663 23.2436 156.188 28.9176 155.788 35.8513ZM17.0951 166.117C10.6361 168.52 2.6705 173.216 0.386085 175.968C-0.8846 177.498 0.529219 177.803 11.5489 178.373C29.7796 179.315 36.891 182.528 64.1527 202.141C78.5292 212.484 85.0517 215.879 95.6558 218.537C105.345 220.966 116.129 220.333 123.606 216.899L128.592 214.607L118.5 214.507C106.551 214.391 102.333 213.265 88.1127 206.389C83.3808 204.101 77.2785 198.858 65.2333 186.736C56.199 177.644 47.0131 168.976 44.819 167.474C39.2671 163.673 25.4783 162.999 17.0951 166.117ZM71.4977 181.305C75.115 186.385 83.8102 194.025 88.9598 196.651C104.217 204.432 117.904 205.648 149.366 202.017C173.791 199.197 191.792 201.147 201.754 207.687C204.105 209.231 207.561 211.489 209.431 212.703L212.833 214.909L211.498 212.418C209.358 208.419 198.345 199.342 191.629 196.039C178.989 189.824 162.958 188.523 129.885 191.024C104.266 192.962 88.4942 190.247 74.7442 181.53L69.1158 177.963L71.4977 181.305Z" fill="white"/>
	</g>
	<path d="M81.48 270V242H89.68L96.36 252.84L103.04 242H111.24V270H103.52V253.92L96.36 264.88H96.2L89.08 254V270H81.48ZM116.207 270V242H138.727V248.6H123.887V252.84H137.327V258.96H123.887V263.4H138.927V270H116.207ZM142.886 270V242H153.686C158.593 242 162.446 243.28 165.246 245.84C168.073 248.4 169.486 251.76 169.486 255.92C169.486 260.053 168.06 263.44 165.206 266.08C162.353 268.693 158.46 270 153.526 270H142.886ZM150.646 263.12H153.806C156.153 263.12 158.02 262.493 159.406 261.24C160.82 259.987 161.526 258.227 161.526 255.96C161.526 253.747 160.82 252 159.406 250.72C158.02 249.44 156.153 248.8 153.806 248.8H150.646V263.12Z" fill="white"/>
	<path d="M77.82 308V286.8H69.42V280H93.98V286.8H85.58V308H77.82ZM97.3863 308V280H119.906V286.6H105.066V290.84H118.506V296.96H105.066V301.4H120.106V308H97.3863ZM137.546 308.56C133.493 308.56 130.066 307.187 127.266 304.44C124.493 301.667 123.106 298.187 123.106 294C123.106 289.893 124.506 286.44 127.306 283.64C130.133 280.84 133.653 279.44 137.866 279.44C142.853 279.44 146.773 281.413 149.626 285.36L143.946 289.76C142.213 287.6 140.159 286.52 137.786 286.52C135.839 286.52 134.239 287.24 132.986 288.68C131.733 290.12 131.106 291.893 131.106 294C131.106 296.133 131.733 297.92 132.986 299.36C134.239 300.773 135.839 301.48 137.786 301.48C139.146 301.48 140.306 301.2 141.266 300.64C142.226 300.053 143.173 299.2 144.106 298.08L149.946 302.24C148.479 304.24 146.773 305.8 144.826 306.92C142.879 308.013 140.453 308.56 137.546 308.56ZM153.285 308V280H161.045V290.48H171.005V280H178.765V308H171.005V297.36H161.045V308H153.285Z" fill="white"/>
	<defs>
		<clipPath id="clip0_81_152">
			<rect width="250" height="220" fill="white"/>
		</clipPath>
	</defs>
</svg>
